<svg width="1116" height="349" viewBox="0 0 1116 349" fill="none" xmlns="http://www.w3.org/2000/svg">
<path fill-rule="evenodd" clip-rule="evenodd" d="M588.42 87.58C588.42 92.0578 587.092 96.435 584.604 100.158C582.117 103.881 578.581 106.783 574.444 108.497C570.307 110.21 565.755 110.659 561.363 109.785C556.971 108.911 552.937 106.755 549.771 103.589C546.605 100.423 544.449 96.3886 543.575 91.9969C542.701 87.6051 543.15 83.053 544.863 78.9161C546.577 74.7791 549.479 71.2433 553.202 68.7555C556.925 66.2678 561.302 64.94 565.78 64.94C568.756 64.9308 571.704 65.5101 574.455 66.6446C577.206 67.779 579.705 69.4463 581.809 71.5505C583.914 73.6547 585.581 76.1542 586.715 78.9051C587.85 81.6561 588.429 84.6043 588.42 87.58ZM495.02 133.08V138.68C490.747 134.057 485.522 130.416 479.706 128.007C473.89 125.599 467.62 124.481 461.33 124.73C452.316 124.633 443.377 126.363 435.05 129.817C426.724 133.271 419.184 138.376 412.886 144.825C406.588 151.274 401.662 158.932 398.405 167.338C395.149 175.743 393.63 184.721 393.94 193.73C393.621 202.739 395.13 211.719 398.378 220.127C401.626 228.536 406.544 236.2 412.836 242.655C419.127 249.111 426.662 254.224 434.985 257.686C443.308 261.148 452.246 262.888 461.26 262.8C467.587 263.091 473.899 261.958 479.729 259.485C485.56 257.012 490.762 253.261 494.95 248.51V254.44C494.94 255.08 495.059 255.714 495.3 256.307C495.54 256.9 495.897 257.438 496.349 257.891C496.802 258.343 497.34 258.7 497.933 258.94C498.525 259.18 499.16 259.299 499.8 259.29H528.04V128H500.04C498.765 128.035 497.552 128.558 496.65 129.46C495.748 130.362 495.225 131.575 495.19 132.85L495.02 133.08ZM495.02 217.04C491.787 221.494 487.538 225.114 482.627 227.599C477.716 230.084 472.284 231.363 466.78 231.33C444.48 231.33 427.43 217.38 427.43 193.73C427.43 170.08 444.48 156.13 466.78 156.13C472.271 156.171 477.677 157.483 482.576 159.962C487.476 162.441 491.735 166.021 495.02 170.42V217.12V217.04ZM549.02 128.22H582.72V259.22H549.02V128V128.22ZM1048.69 124.72C1042.4 124.471 1036.13 125.589 1030.31 127.997C1024.5 130.406 1019.27 134.047 1015 138.67V65.15H981.3V259.2H1009.53C1010.81 259.165 1012.02 258.642 1012.92 257.74C1013.82 256.838 1014.34 255.625 1014.38 254.35V248.42C1018.6 253.117 1023.79 256.831 1029.6 259.3C1035.41 261.769 1041.69 262.933 1048 262.71C1057.01 262.779 1065.93 261.029 1074.25 257.566C1082.56 254.102 1090.09 248.996 1096.38 242.553C1102.67 236.11 1107.6 228.463 1110.87 220.07C1114.13 211.677 1115.67 202.712 1115.39 193.71C1115.68 184.706 1114.15 175.737 1110.88 167.34C1107.62 158.944 1102.69 151.293 1096.4 144.849C1090.11 138.404 1082.57 133.298 1074.26 129.837C1065.94 126.377 1057.01 124.633 1048 124.71L1048.69 124.72ZM1043 231C1037.49 231.078 1032.04 229.819 1027.12 227.33C1022.2 224.841 1017.96 221.197 1014.76 216.71V170C1018.15 165.719 1022.44 162.224 1027.31 159.757C1032.19 157.29 1037.54 155.909 1043 155.71C1065.3 155.71 1082.35 169.66 1082.35 193.31C1082.35 216.96 1065.3 230.91 1043 230.91V231ZM964.22 181.54V259.57H930.52V185.44C930.52 163.81 923.78 155.12 904.72 155.12C899.585 155.299 894.541 156.534 889.905 158.748C885.268 160.963 881.137 164.109 877.77 167.99V259.23H844.07V128H870.55C871.825 128.035 873.038 128.558 873.94 129.46C874.842 130.362 875.365 131.575 875.4 132.85V138.45C880.05 133.82 885.601 130.193 891.709 127.794C897.817 125.394 904.352 124.273 910.91 124.5C924.237 124.007 937.273 128.471 947.5 137.03C959.36 146.8 963.87 159.33 963.87 181.3L964.22 181.54ZM763.22 124.74C756.93 124.491 750.66 125.609 744.844 128.017C739.028 130.426 733.803 134.067 729.53 138.69V65.17H695.83V259.2H724.07C725.345 259.165 726.558 258.642 727.46 257.74C728.362 256.838 728.885 255.625 728.92 254.35V248.42C733.144 253.126 738.352 256.846 744.174 259.315C749.996 261.785 756.29 262.944 762.61 262.71C771.616 262.779 780.543 261.029 788.856 257.566C797.169 254.102 804.698 248.996 810.99 242.553C817.283 236.11 822.21 228.463 825.476 220.07C828.743 211.677 830.281 202.712 830 193.71C830.349 184.691 828.856 175.696 825.614 167.274C822.372 158.851 817.447 151.177 811.141 144.72C804.835 138.263 797.279 133.159 788.936 129.719C780.592 126.278 771.634 124.574 762.61 124.71L763.22 124.74ZM757.6 231C752.088 231.078 746.64 229.819 741.722 227.33C736.803 224.841 732.562 221.197 729.36 216.71V170C732.755 165.719 737.037 162.224 741.912 159.757C746.788 157.29 752.14 155.909 757.6 155.71C779.9 155.71 796.95 169.66 796.95 193.31C796.95 216.96 779.9 230.91 757.6 230.91V231ZM666.8 124.7C671.978 124.536 677.152 125.125 682.16 126.45V157.45C682.16 157.45 654.16 148.22 636.88 167.89V259.54H603.18V128H631.42C632.695 128.035 633.908 128.558 634.81 129.46C635.712 130.362 636.235 131.575 636.27 132.85V138.45C644.26 130.149 655.087 125.167 666.59 124.5L666.8 124.7ZM319.4 247.35L314.14 234.82L306.12 217.02L305.78 216.68C281.409 163.57 255.748 111.061 228.82 59.2L227.74 57.2L219.44 40.5C216.008 33.6626 211.804 27.2407 206.91 21.36C201.585 14.6498 194.799 9.24393 187.068 5.55439C179.337 1.86484 170.866 -0.0109385 162.3 0.0700182C153.792 0.0981483 145.393 1.98188 137.689 5.58985C129.984 9.19781 123.159 14.4432 117.69 20.96C112.914 26.927 108.718 33.336 105.16 40.1L95.73 58.56C68.78 110.86 42.76 163.76 18.71 216.04L18.37 216.71C16.37 222.44 13.52 228.31 10.69 234.57C8.93664 238.39 7.1833 242.567 5.42997 247.1C0.984247 259.103 -0.450978 272.013 1.24997 284.7C3.12509 297.44 8.2868 309.473 16.2266 319.611C24.1665 329.75 34.6105 337.646 46.53 342.52C55.4674 346.277 65.0752 348.179 74.77 348.11C77.7903 348.059 80.8052 347.836 83.8 347.44C96.0933 345.872 107.943 341.838 118.64 335.58C134.887 325.89 149.47 313.651 161.83 299.33C174.268 313.572 188.837 325.8 205.02 335.58C215.716 341.84 227.566 345.874 239.86 347.44C242.855 347.835 245.87 348.059 248.89 348.11C258.588 348.211 268.202 346.308 277.13 342.52C289.049 337.646 299.493 329.75 307.433 319.611C315.373 309.473 320.535 297.44 322.41 284.7C324.977 272.235 323.876 259.293 319.24 247.44L319.4 247.35ZM162.32 265.48C143.52 241.76 131.32 219.52 127.14 200.65C125.433 193.707 125.066 186.501 126.06 179.42C126.75 174.175 128.665 169.167 131.65 164.8C135.142 159.956 139.754 156.028 145.093 153.354C150.432 150.679 156.339 149.336 162.31 149.44C168.294 149.21 174.24 150.491 179.599 153.165C184.957 155.839 189.556 159.82 192.97 164.74C195.955 169.107 197.87 174.115 198.56 179.36C199.559 186.441 199.192 193.647 197.48 200.59C193.3 219.05 181.11 241.02 162.3 265.42L162.32 265.48ZM301.34 281.85C300.03 290.77 296.412 299.193 290.844 306.284C285.277 313.376 277.954 318.89 269.6 322.28C261.268 325.804 252.17 327.126 243.18 326.12C233.826 324.963 224.812 321.889 216.7 317.09C201.748 308.063 188.346 296.687 177.01 283.4C199.99 255.16 213.94 229.4 219.19 206.38C221.457 196.668 222.049 186.641 220.94 176.73C219.646 168.208 216.42 160.094 211.51 153.01C205.988 145.13 198.614 138.728 190.036 134.369C181.458 130.009 171.94 127.826 162.32 128.01C152.749 127.888 143.289 130.071 134.739 134.375C126.19 138.68 118.802 144.979 113.2 152.74C108.29 159.824 105.064 167.938 103.77 176.46C102.297 186.358 102.893 196.454 105.52 206.11C110.78 229.09 125.06 255.23 147.7 283.47C136.443 296.837 123.028 308.224 108.01 317.16C99.8983 322.063 90.8579 325.229 81.46 326.46C72.4801 327.457 63.3924 326.256 54.98 322.96C46.626 319.57 39.3028 314.056 33.7355 306.964C28.1683 299.873 24.5503 291.45 23.24 282.53C22.1384 273.422 23.2251 264.183 26.41 255.58C27.49 252.08 29.17 248.84 30.91 244.46C33.34 238.86 36.17 232.94 38.93 227.01L39.27 226.34C63.33 174.34 89.07 121.49 115.97 69.87L116.97 67.37L125.33 51.33C128.043 45.8009 131.414 40.62 135.37 35.9C138.805 31.8638 143.076 28.622 147.887 26.3989C152.698 24.1757 157.935 23.0244 163.235 23.0244C168.535 23.0244 173.772 24.1757 178.583 26.3989C183.394 28.622 187.665 31.8638 191.1 35.9C194.858 40.6085 198.046 45.744 200.6 51.2L208.96 67.24L209.96 69.24C236.44 121.2 262.32 174.09 286.31 226.04V226.38C289.07 231.98 291.57 238.24 294.33 243.83C296.08 248.01 297.83 251.51 298.83 254.95C301.723 263.623 302.555 272.85 301.26 281.9L301.34 281.85Z" fill="#3178C6"/>
</svg>
